REM DIRINDEX 1\2,1\3,1\4,1\5,1\6
REM DIRNAME cjc030,folder01,folder02,folder03,folder04,folder05
TITLE ""
FILE "Disc1Track30.mp3" MP3
  TRACK 01 AUDIO
    TITLE "3:cjc030_00721"
    INDEX 01 00:00:00
  TRACK 02 AUDIO
    TITLE "0:"
    INDEX 01 00:00:68
  TRACK 03 AUDIO
    TITLE "4:cjc030_00722"
    INDEX 01 00:01:03
  TRACK 04 AUDIO
    TITLE "0:"
    INDEX 01 00:03:35
  TRACK 05 AUDIO
    TITLE "5:cjc030_00723"
    INDEX 01 00:03:43
  TRACK 06 AUDIO
    TITLE "0:"
    INDEX 01 00:04:42
  TRACK 07 AUDIO
    TITLE "6:cjc030_00724"
    INDEX 01 00:04:54
  TRACK 08 AUDIO
    TITLE "0:"
    INDEX 01 00:10:12
  TRACK 09 AUDIO
    TITLE "3:cjc030_00725"
    INDEX 01 00:10:63
  TRACK 10 AUDIO
    TITLE "0:"
    INDEX 01 00:11:70
  TRACK 11 AUDIO
    TITLE "4:cjc030_00726"
    INDEX 01 00:12:03
  TRACK 12 AUDIO
    TITLE "0:"
    INDEX 01 00:13:69
  TRACK 13 AUDIO
    TITLE "5:cjc030_00727"
    INDEX 01 00:14:00
  TRACK 14 AUDIO
    TITLE "0:"
    INDEX 01 00:15:09
  TRACK 15 AUDIO
    TITLE "6:cjc030_00728"
    INDEX 01 00:15:21
  TRACK 16 AUDIO
    TITLE "0:"
    INDEX 01 00:17:49
  TRACK 17 AUDIO
    TITLE "3:cjc030_00729"
    INDEX 01 00:18:23
  TRACK 18 AUDIO
    TITLE "0:"
    INDEX 01 00:20:26
  TRACK 19 AUDIO
    TITLE "4:cjc030_00730"
    INDEX 01 00:20:36
  TRACK 20 AUDIO
    TITLE "0:"
    INDEX 01 00:21:60
  TRACK 21 AUDIO
    TITLE "5:cjc030_00731"
    INDEX 01 00:21:68
  TRACK 22 AUDIO
    TITLE "0:"
    INDEX 01 00:23:71
  TRACK 23 AUDIO
    TITLE "6:cjc030_00732"
    INDEX 01 00:24:08
  TRACK 24 AUDIO
    TITLE "0:"
    INDEX 01 00:28:13
  TRACK 25 AUDIO
    TITLE "3:cjc030_00733"
    INDEX 01 00:28:60
  TRACK 26 AUDIO
    TITLE "0:"
    INDEX 01 00:30:16
  TRACK 27 AUDIO
    TITLE "4:cjc030_00734"
    INDEX 01 00:30:28
  TRACK 28 AUDIO
    TITLE "0:"
    INDEX 01 00:31:69
  TRACK 29 AUDIO
    TITLE "5:cjc030_00735"
    INDEX 01 00:32:03
  TRACK 30 AUDIO
    TITLE "0:"
    INDEX 01 00:33:36
  TRACK 31 AUDIO
    TITLE "6:cjc030_00736"
    INDEX 01 00:33:48
  TRACK 32 AUDIO
    TITLE "0:"
    INDEX 01 00:38:61
  TRACK 33 AUDIO
    TITLE "3:cjc030_00737"
    INDEX 01 00:39:33
  TRACK 34 AUDIO
    TITLE "0:"
    INDEX 01 00:40:46
  TRACK 35 AUDIO
    TITLE "4:cjc030_00738"
    INDEX 01 00:40:54
  TRACK 36 AUDIO
    TITLE "0:"
    INDEX 01 00:42:49
  TRACK 37 AUDIO
    TITLE "5:cjc030_00739"
    INDEX 01 00:42:57
  TRACK 38 AUDIO
    TITLE "0:"
    INDEX 01 00:43:70
  TRACK 39 AUDIO
    TITLE "3:cjc030_00740"
    INDEX 01 00:44:44
  TRACK 40 AUDIO
    TITLE "0:"
    INDEX 01 00:45:49
  TRACK 41 AUDIO
    TITLE "4:cjc030_00741"
    INDEX 01 00:45:61
  TRACK 42 AUDIO
    TITLE "0:"
    INDEX 01 00:48:04
  TRACK 43 AUDIO
    TITLE "5:cjc030_00742"
    INDEX 01 00:48:14
  TRACK 44 AUDIO
    TITLE "0:"
    INDEX 01 00:49:21
  TRACK 45 AUDIO
    TITLE "6:cjc030_00743"
    INDEX 01 00:49:33
  TRACK 46 AUDIO
    TITLE "0:"
    INDEX 01 00:56:04
  TRACK 47 AUDIO
    TITLE "3:cjc030_00744"
    INDEX 01 00:56:51
  TRACK 48 AUDIO
    TITLE "0:"
    INDEX 01 00:57:70
  TRACK 49 AUDIO
    TITLE "4:cjc030_00745"
    INDEX 01 00:58:05
  TRACK 50 AUDIO
    TITLE "0:"
    INDEX 01 00:59:16
  TRACK 51 AUDIO
    TITLE "5:cjc030_00746"
    INDEX 01 00:59:24
  TRACK 52 AUDIO
    TITLE "0:"
    INDEX 01 01:00:43
  TRACK 53 AUDIO
    TITLE "3:cjc030_00747"
    INDEX 01 01:01:17
  TRACK 54 AUDIO
    TITLE "0:"
    INDEX 01 01:02:30
  TRACK 55 AUDIO
    TITLE "4:cjc030_00748"
    INDEX 01 01:02:40
  TRACK 56 AUDIO
    TITLE "0:"
    INDEX 01 01:05:38
  TRACK 57 AUDIO
    TITLE "5:cjc030_00749"
    INDEX 01 01:05:48
  TRACK 58 AUDIO
    TITLE "0:"
    INDEX 01 01:06:61
  TRACK 59 AUDIO
    TITLE "3:cjc030_00750"
    INDEX 01 01:07:33
  TRACK 60 AUDIO
    TITLE "0:"
    INDEX 01 01:08:44
  TRACK 61 AUDIO
    TITLE "4:cjc030_00751"
    INDEX 01 01:08:54
  TRACK 62 AUDIO
    TITLE "0:"
    INDEX 01 01:11:02
  TRACK 63 AUDIO
    TITLE "5:cjc030_00752"
    INDEX 01 01:11:07
  TRACK 64 AUDIO
    TITLE "0:"
    INDEX 01 01:12:17
  TRACK 65 AUDIO
    TITLE "6:cjc030_00753"
    INDEX 01 01:12:30
  TRACK 66 AUDIO
    TITLE "0:"
    INDEX 01 01:16:42
